<svg xmlns="http://www.w3.org/2000/svg" xmlns:xlink="http://www.w3.org/1999/xlink" viewBox="0 0 16 16"><defs><path id="a" d="M8.91 8h6.18c.64 0 .99.76.56 1.25l-2.65 3v2.3a.5.5 0 0 1-.15.35l-1 1a.5.5 0 0 1-.85-.36v-3.29l-2.65-3A.75.75 0 0 1 8.91 8"/><path id="b" d="M9.5 3H12a3 3 0 0 1 3 3h-.76A3 3 0 0 0 12 5H4a3 3 0 0 0-3 3V4a3 3 0 0 1 3-3h1.5C8 1 8 3 9.5 3"/></defs><use xlink:href="#a" fill="#8b5cf6" fill-rule="evenodd"/><use xlink:href="#a" fill="#f8fafc" fill-opacity="0.1" fill-rule="evenodd"/><use xlink:href="#b" fill="#8b5cf6" fill-opacity=".4" fill-rule="evenodd"/><use xlink:href="#b" fill="#f8fafc" fill-opacity="0.1" fill-rule="evenodd"/><path fill="#8b5cf6" fill-opacity=".8" fill-rule="evenodd" d="M12 5a3 3 0 0 1 2.24 1H8.9a2.75 2.75 0 0 0-2.06 4.57L9 13v2H4a3 3 0 0 1-3-3V8a3 3 0 0 1 3-3z"/><path fill="#f8fafc" fill-opacity="0.1" d="M14.24 6H4a2 2 0 0 0-2 2v4c0 1.1.9 2 2 2h5v1H4a3 3 0 0 1-3-3V8a3 3 0 0 1 3-3h8a3 3 0 0 1 2.24 1"/></svg>