<svg xmlns="http://www.w3.org/2000/svg" xmlns:xlink="http://www.w3.org/1999/xlink" viewBox="0 0 16 16"><defs><path id="a" d="M9.5 8h.73l2 3H16v3.5c0 .83-.67 1.5-1.5 1.5h-5A1.5 1.5 0 0 1 8 14.5v-5C8 8.67 8.67 8 9.5 8m5 0c.83 0 1.5.67 1.5 1.5v.5h-3.23l-1.34-2zm-4 4h3a.5.5 0 1 1 0 1h-3a.5.5 0 1 1 0-1"/><path id="b" d="M9.5 3H12a3 3 0 0 1 3 3v.04L14.5 6h-.26A3 3 0 0 0 12 5H4a3 3 0 0 0-3 3V4a3 3 0 0 1 3-3h1.5C8 1 8 3 9.5 3"/></defs><use xlink:href="#a" fill="#eab308" fill-rule="evenodd"/><use xlink:href="#a" fill="#f8fafc" fill-opacity="0.1" fill-rule="evenodd"/><use xlink:href="#b" fill="#eab308" fill-opacity=".4" fill-rule="evenodd"/><use xlink:href="#b" fill="#f8fafc" fill-opacity="0.1" fill-rule="evenodd"/><path fill="#eab308" fill-opacity=".8" fill-rule="evenodd" d="M12 5a3 3 0 0 1 2.24 1h-2.8q-.33 0-.6.1a2 2 0 0 0-.6-.1H9.5A3.5 3.5 0 0 0 6 9.5v5q0 .26.04.5H4a3 3 0 0 1-3-3V8a3 3 0 0 1 3-3z"/><path fill="#f8fafc" fill-opacity="0.1" d="M14.24 6H4a2 2 0 0 0-2 2v4c0 1.1.9 2 2 2h2v.5q0 .26.04.5H4a3 3 0 0 1-3-3V8a3 3 0 0 1 3-3h8a3 3 0 0 1 2.24 1"/></svg>