<svg xmlns="http://www.w3.org/2000/svg" viewBox="0 0 16 16"><path fill="#64748b" fill-opacity=".4" fill-rule="evenodd" d="M5 1h3.76a3 3 0 0 1 2.12.88l2.24 2.24A3 3 0 0 1 14 6.24V12a3 3 0 0 1-3 3H5a3 3 0 0 1-3-3V4a3 3 0 0 1 3-3"/><path fill="#f8fafc" fill-opacity="0.1" d="m10.88 1.88 2.24 2.24A3 3 0 0 1 14 6.24V12a3 3 0 0 1-3 3H5a3 3 0 0 1-3-3V4a3 3 0 0 1 3-3h3.76a3 3 0 0 1 2.12.88M5 2a2 2 0 0 0-2 2v8c0 1.1.9 2 2 2h6a2 2 0 0 0 2-2V6.24a2 2 0 0 0-.59-1.41l-2.24-2.24A2 2 0 0 0 8.76 2z"/><path fill="#f97316" fill-rule="evenodd" d="M9 5a5 5 0 0 1 3.12 8.9l-.62-.78a4 4 0 1 0-5 0l-.62.78A5 5 0 0 1 9 5m0 2a3 3 0 0 1 1.87 5.34l-.62-.78a2 2 0 1 0-2.5 0l-.62.78A3 3 0 0 1 9 7m0 2a1 1 0 0 1 .63 1.78L9 10l-.63.78A1 1 0 0 1 9 9"/></svg>