<svg xmlns="http://www.w3.org/2000/svg" xmlns:xlink="http://www.w3.org/1999/xlink" viewBox="0 0 16 16"><defs><path id="a" d="M8.91 8h6.18c.64 0 .99.76.56 1.25l-2.65 3v2.3a.5.5 0 0 1-.15.35l-1 1a.5.5 0 0 1-.85-.36v-3.29l-2.65-3A.75.75 0 0 1 8.91 8"/></defs><use xlink:href="#a" fill="#64748b" fill-rule="evenodd"/><use xlink:href="#a" fill="#f8fafc" fill-opacity="0.1" fill-rule="evenodd"/><path fill="#64748b" fill-opacity=".6" fill-rule="evenodd" d="M7.5 11.3 9 13v2.62c-.65.3-1.35.38-2 .38 1.34-1.34.3-2.06 1-3-.5.75-1.5 1-2.75 1S3 12.75 3 12c0-.5 0-1.25 1-1.5 0 1 1 1.5 1.75 1.5s1.25-.25 1.75-.7M10 6c1.07 0 2.46-.43 3-1.5.69.45 1.16.9 1.48 1.5H8.9a2.76 2.76 0 0 0-2.7 3.31C4.8 8.25 2.75 8.5 1.75 8.5 1.52 8.27 0 6.69 0 5.75s.53-1.5 1-1.5c1.17 0 1.1-.08 2.5-1.25s3.13-1.42 5-.25c0-.7 1.03-1.52 1.5-1.75.94.23 2 1 2 2.5S10.94 5.53 10 6"/><path fill="#f8fafc" fill-opacity="0.1" d="M7.5 11.3 9 13v.14a1 1 0 0 1-.2.46.3.3 0 0 0-.07.18v.87q.15-.08.27-.18v1.15c-.65.3-1.35.38-2 .38 1.34-1.34.3-2.06 1-3-.5.75-1.5 1-2.75 1S3 12.75 3 12c0-.5 0-1.25 1-1.5 0 1 1 1.5 1.75 1.5s1.25-.25 1.75-.7M10 6c1.07 0 2.46-.43 3-1.5.69.45 1.16.9 1.48 1.5h-1.22l-.1-.1-.12.1H9a1 1 0 0 1 .55-.9C10.71 4.54 11 4.25 11 3.5c0-.67-.33-1.15-.87-1.4l-.34.3a2 2 0 0 0-.3.39 1 1 0 0 1-1.52.8c-1.42-.88-2.67-.79-3.83.18l-.88.74c-.3.24-.5.38-.75.5-.4.19-.72.23-1.39.24a1 1 0 0 0-.12.5 3 3 0 0 0 .59 1.04 10 10 0 0 0 .58.7h.1c1-.03 1.62-.02 2.34.11q.9.15 1.62.54-.14.58-.02 1.17C4.8 8.25 2.75 8.5 1.75 8.5 1.52 8.27 0 6.69 0 5.75s.53-1.5 1-1.5c1.17 0 1.1-.08 2.5-1.25s3.13-1.42 5-.25c0-.7 1.03-1.52 1.5-1.75.94.23 2 1 2 2.5S10.94 5.53 10 6"/></svg>