<svg xmlns="http://www.w3.org/2000/svg" xmlns:xlink="http://www.w3.org/1999/xlink" viewBox="0 0 16 16"><defs><path id="a" d="M13 1a2 2 0 0 1 2 2v6a2 2 0 0 1-2 2V5a2 2 0 0 0-2-2H5c0-1.1.9-2 2-2z"/><path id="b" d="M11 3a2 2 0 0 1 2 2v6a2 2 0 0 1-2 2V7a2 2 0 0 0-2-2H3c0-1.1.9-2 2-2z"/><path id="c" d="M9 5a2 2 0 0 1 2 2v6a2 2 0 0 1-2 2H3a2 2 0 0 1-2-2V7c0-1.1.9-2 2-2zm-4.14 5.05a1 1 0 0 0-1.74 0l-.99 1.72a1 1 0 0 0-.13.5V13a1 1 0 0 0 1 1h6a1 1 0 0 0 1-1v-.67a1 1 0 0 0-.2-.6l-.45-.6a1 1 0 0 0-1.63.05l-.31.46a1 1 0 0 1-1.7-.07zM7 7a1 1 0 1 0 0 2 1 1 0 0 0 0-2"/></defs><use xlink:href="#a" fill="#22c55e" fill-opacity=".4" fill-rule="evenodd"/><use xlink:href="#a" fill="#f8fafc" fill-opacity="0.1" fill-rule="evenodd"/><use xlink:href="#b" fill="#22c55e" fill-opacity=".6" fill-rule="evenodd"/><use xlink:href="#b" fill="#f8fafc" fill-opacity="0.1" fill-rule="evenodd"/><use xlink:href="#c" fill="#22c55e" fill-rule="evenodd"/><use xlink:href="#c" fill="#f8fafc" fill-opacity="0.1" fill-rule="evenodd"/></svg>